<svg version="1.0" xmlns="http://www.w3.org/2000/svg"
 width="250.000000pt" height="250.000000pt" viewBox="0 0 250.000000 250.000000"
 preserveAspectRatio="xMidYMid meet">

<g transform="translate(0.000000,250.000000) scale(0.100000,-0.100000)"
fill="#000000" stroke="none">
<path d="M1702 2223 c-7 -12 -11 -39 -10 -60 l1 -38 6 45 7 45 8 -32 c8 -36
67 -93 94 -93 10 1 5 6 -13 14 -43 19 -65 47 -73 97 -8 41 -9 43 -20 22z"/>
<path d="M2256 2225 c4 -8 10 -12 15 -9 6 3 7 -6 4 -23 -4 -23 -4 -24 4 -8 8
17 10 14 10 -16 1 -48 -28 -83 -83 -102 -47 -16 -56 -14 -56 14 0 32 -39 47
-125 47 -81 1 -145 -12 -145 -29 0 -5 -12 -10 -27 -10 l-28 -1 30 -7 c20 -4
31 -2 33 6 2 7 13 15 25 19 17 5 122 8 199 5 20 -1 34 -43 22 -63 -15 -24 -12
-33 12 -33 13 0 24 5 24 12 0 6 14 14 30 18 17 4 46 21 65 40 30 28 35 39 35
77 0 31 -6 50 -18 61 -23 21 -33 22 -26 2z"/>
<path d="M2255 2149 c-4 -6 -5 -12 -2 -15 2 -3 7 2 10 11 7 17 1 20 -8 4z"/>
<path d="M1518 2113 c12 -2 32 -2 45 0 12 2 2 4 -23 4 -25 0 -35 -2 -22 -4z"/>
<path d="M1700 2111 c0 -3 17 -22 37 -43 l36 -37 -39 10 c-21 6 -57 24 -78 40
-42 31 -66 37 -66 17 0 -6 2 -9 5 -6 3 3 21 -10 40 -27 18 -18 46 -36 62 -39
15 -4 47 -16 71 -27 l44 -20 -23 -27 c-13 -15 -26 -29 -27 -32 -2 -3 -15 8
-28 23 -13 15 -24 25 -24 21 0 -5 12 -20 26 -35 14 -15 24 -33 22 -40 -2 -7
-18 7 -36 31 -18 24 -32 41 -32 37 0 -4 14 -26 31 -50 26 -36 30 -48 25 -87
l-5 -45 13 40 c8 22 15 33 15 25 1 -11 5 -10 13 5 15 27 49 55 70 55 9 0 19 6
21 13 3 6 6 0 6 -15 1 -19 -6 -31 -21 -39 -13 -6 -35 -23 -50 -36 -15 -15 -32
-22 -40 -18 -7 3 -5 0 5 -8 9 -8 17 -24 17 -36 0 -25 17 -28 22 -3 6 29 63
-140 60 -178 -2 -27 0 -31 7 -20 17 24 14 49 -16 137 -24 72 -26 84 -14 110
l13 28 18 -59 c10 -32 16 -64 13 -71 -6 -18 26 -13 37 5 13 22 44 -95 45 -175
1 -38 3 -90 4 -115 l3 -45 13 53 c25 103 26 108 16 93 -10 -16 -13 -9 -26 72
l-6 39 21 -20 c12 -11 23 -32 24 -45 1 -18 4 -22 13 -16 18 16 43 75 43 104 0
16 11 36 29 53 27 25 30 35 36 122 6 76 10 91 18 73 5 -13 14 -23 18 -23 5 0
25 -16 45 -36 28 -29 38 -34 47 -24 9 10 9 11 0 6 -12 -6 -93 67 -93 85 0 16
20 49 29 49 5 0 19 -15 31 -32 12 -18 19 -25 17 -16 -3 9 1 19 8 22 11 4 15
-7 18 -45 l4 -49 -1 52 c-1 39 -5 52 -15 50 -8 -2 -11 3 -8 12 3 8 -4 22 -15
33 -12 10 -19 13 -15 7 4 -7 -9 -10 -39 -8 -52 3 -64 -11 -64 -75 0 -23 -4
-41 -10 -41 -5 0 -10 7 -10 15 0 8 -5 15 -11 15 -6 0 -1 -15 10 -34 22 -36 29
-120 11 -131 -7 -4 -8 8 -4 36 6 33 4 41 -7 37 -9 -3 -13 -18 -12 -41 2 -32
-1 -36 -27 -42 -34 -7 -70 1 -70 17 0 6 -6 6 -15 -2 -13 -11 -15 -8 -15 21 0
23 -3 30 -9 20 -13 -19 -37 22 -45 76 -11 78 -51 136 -70 104 -9 -14 -78 -52
-70 -39 17 31 49 57 75 63 26 6 29 11 28 43 -1 20 -3 29 -6 20 -5 -19 -47 -25
-58 -8 -3 5 -12 7 -19 4 -8 -3 -32 12 -55 34 -23 21 -41 36 -41 33z m113 -98
c-7 -2 -21 -2 -30 0 -10 3 -4 5 12 5 17 0 24 -2 18 -5z m5 -208 c-6 -13 -15
-22 -19 -19 -5 2 -1 14 9 24 22 26 24 25 10 -5z"/>
<path d="M1429 2083 c-13 -16 -12 -17 4 -4 16 13 21 21 13 21 -2 0 -10 -8 -17
-17z"/>
<path d="M1412 2035 c0 -16 2 -22 5 -12 2 9 2 23 0 30 -3 6 -5 -1 -5 -18z"/>
<path d="M2190 2016 c0 -2 7 -7 16 -10 8 -3 12 -2 9 4 -6 10 -25 14 -25 6z"/>
<path d="M1401 1983 c-1 -14 -10 -25 -28 -31 -21 -7 -8 -8 47 -4 41 2 80 9 85
14 6 6 -7 7 -37 3 -44 -7 -49 -5 -57 16 -9 23 -10 23 -10 2z"/>
<path d="M1907 1992 c-6 -8 3 -23 24 -43 35 -33 49 -26 28 13 -8 14 -14 18
-17 10 -6 -20 -20 -14 -24 11 -2 15 -5 18 -11 9z"/>
<path d="M2120 1980 c-6 -11 -16 -19 -23 -17 -6 1 -13 -9 -15 -22 l-4 -23 25
23 c13 13 27 32 30 42 9 23 0 22 -13 -3z"/>
<path d="M1508 1983 c7 -3 16 -2 19 1 4 3 -2 6 -13 5 -11 0 -14 -3 -6 -6z"/>
<path d="M1585 1970 c11 -5 27 -9 35 -9 9 0 8 4 -5 9 -11 5 -27 9 -35 9 -9 0
-8 -4 5 -9z"/>
<path d="M858 1963 c12 -2 30 -2 40 0 9 3 -1 5 -23 4 -22 0 -30 -2 -17 -4z"/>
<path d="M1013 1963 c9 -2 23 -2 30 0 6 3 -1 5 -18 5 -16 0 -22 -2 -12 -5z"/>
<path d="M778 1953 c7 -3 16 -2 19 1 4 3 -2 6 -13 5 -11 0 -14 -3 -6 -6z"/>
<path d="M1083 1949 c15 -6 27 -14 27 -19 0 -15 43 -19 56 -5 14 13 14 13 -86
31 -23 4 -23 3 3 -7z"/>
<path d="M1298 1933 c6 -2 18 -2 25 0 6 3 1 5 -13 5 -14 0 -19 -2 -12 -5z"/>
<path d="M644 1911 c-30 -18 -74 -70 -74 -87 0 -5 11 8 25 29 14 20 42 46 63
56 20 11 33 20 27 21 -5 0 -24 -9 -41 -19z"/>
<path d="M749 1913 c-13 -16 -12 -17 4 -4 9 7 17 15 17 17 0 8 -8 3 -21 -13z"/>
<path d="M1982 1895 c0 -16 2 -22 5 -12 2 9 2 23 0 30 -3 6 -5 -1 -5 -18z"/>
<path d="M666 1875 c-9 -13 -16 -28 -16 -33 0 -5 -9 -17 -21 -28 -56 -50 -68
-120 -70 -404 -1 -167 -12 -260 -26 -221 -3 7 -18 -15 -34 -50 -22 -49 -29
-79 -29 -131 0 -37 5 -70 10 -73 6 -3 10 -17 10 -30 0 -13 5 -27 10 -30 6 -3
11 -23 11 -43 1 -31 3 -29 9 17 5 29 13 58 20 65 8 8 10 6 5 -9 -3 -11 8 6 25
38 29 54 50 73 50 44 0 -7 -7 -39 -15 -70 -20 -79 -19 -97 10 -131 19 -22 22
-32 13 -37 -7 -4 -15 -6 -20 -3 -7 5 -48 -26 -48 -37 0 -3 7 -6 15 -6 8 0 15
4 15 8 0 9 62 -12 71 -24 3 -5 9 -1 13 8 3 9 10 14 15 11 5 -3 7 4 3 16 -3 14
-1 19 6 14 6 -3 13 -2 17 4 3 5 11 10 16 10 6 0 7 -4 4 -10 -3 -5 -2 -10 3
-10 6 0 13 -11 16 -24 7 -29 47 -42 59 -20 6 11 12 12 21 5 13 -11 50 -9 80 4
13 6 21 5 24 -3 2 -7 10 -12 18 -12 11 0 10 5 -5 22 -20 21 -21 21 -41 3 -18
-17 -23 -17 -31 -5 -5 8 -8 22 -5 31 2 10 -3 16 -12 15 -8 0 -26 19 -39 44
-22 41 -24 54 -21 150 3 92 7 110 30 150 15 25 37 66 49 93 12 26 28 47 35 47
29 0 139 -51 168 -78 l30 -27 -23 29 c-18 25 -20 32 -8 43 17 17 78 27 112 19
l25 -6 -21 -41 c-11 -23 -18 -43 -16 -45 2 -3 10 9 17 25 6 16 26 37 43 46 23
12 25 15 9 12 -13 -3 -20 -1 -16 5 4 6 28 8 61 4 30 -3 52 -3 50 2 -5 6 50 7
158 2 11 0 15 -4 10 -8 -14 -10 -18 -112 -6 -142 7 -18 10 -20 10 -7 1 18 45
25 56 8 3 -6 8 -52 10 -103 3 -51 9 -119 14 -151 10 -72 -6 -87 -49 -47 -21
20 -30 38 -33 71 -3 43 -4 43 -5 -9 -2 -46 1 -55 18 -59 22 -6 35 -36 24 -55
-6 -10 -4 -10 8 0 12 10 17 10 20 1 3 -10 14 -10 49 -1 35 8 41 8 28 -1 -13
-10 -6 -12 40 -10 31 2 73 3 93 3 29 0 36 3 31 15 -4 12 -9 13 -18 5 -9 -8
-15 -8 -20 0 -3 5 -1 10 4 10 6 0 11 12 10 28 -1 27 -1 27 -8 3 -11 -42 -29
-35 -72 31 l-41 63 5 80 c3 44 8 89 12 100 5 16 3 15 -12 -4 -15 -20 -17 -40
-15 -110 3 -73 7 -91 28 -119 28 -36 26 -47 -12 -56 -20 -5 -31 -1 -50 19 -22
24 -24 34 -24 133 0 62 -7 136 -16 177 -30 131 -49 309 -32 299 5 -3 6 7 2 22
-5 19 -4 25 5 20 13 -8 14 3 3 22 -6 9 -14 0 -27 -28 -13 -29 -21 -37 -27 -28
-5 8 -6 -6 -2 -34 l6 -48 -55 0 c-31 0 -68 -5 -83 -10 -60 -23 -175 -23 -282
-1 -57 12 -114 18 -128 15 -20 -5 -3 16 69 87 53 51 95 95 93 96 -5 6 -67 -39
-98 -70 -15 -15 -34 -27 -43 -27 -8 0 -15 -5 -15 -10 0 -6 -18 -18 -40 -27
-22 -10 -40 -22 -40 -27 0 -5 -23 -30 -51 -56 -32 -30 -47 -50 -40 -54 6 -4
11 -2 11 3 0 6 9 11 21 11 16 0 20 -4 15 -17 -4 -10 5 -4 18 12 33 39 32 30
-4 -47 -39 -82 -70 -125 -94 -132 -17 -4 -18 -7 -5 -22 9 -12 13 -36 11 -76
-4 -68 12 -150 40 -195 15 -25 16 -33 6 -35 -51 -6 -68 -4 -68 8 0 7 -9 19
-19 26 -15 11 -21 29 -24 74 -3 54 -3 52 -5 -20 -1 -44 -5 -76 -9 -73 -3 4
-12 2 -20 -4 -10 -9 -13 -7 -13 10 0 12 -4 19 -10 16 -15 -9 -50 56 -50 94 0
61 57 241 72 226 3 -3 8 6 10 20 3 14 1 25 -4 25 -4 0 -1 16 7 36 8 20 15 60
15 88 0 29 5 57 11 63 8 8 1 22 -24 49 -68 76 -82 117 -82 234 0 135 15 187
74 253 43 47 42 55 -3 18 -18 -15 -18 -15 -7 7 16 30 7 28 -13 -3z m-67 -335
c1 -30 12 -86 25 -125 13 -38 22 -73 19 -77 -7 -13 -23 -9 -42 10 -15 14 -19
35 -21 107 -2 50 -2 113 -1 140 3 41 4 46 11 25 4 -14 9 -50 9 -80z m75 -257
c18 -39 21 -73 5 -73 -5 0 -7 -4 -4 -10 3 -5 -2 -11 -12 -11 -17 -1 -17 -1 0
-6 15 -4 17 -11 12 -36 -17 -82 -26 -107 -42 -107 -10 0 -14 -6 -10 -19 3 -14
1 -18 -9 -14 -10 4 -12 16 -8 42 3 21 -1 54 -10 80 -16 43 -21 127 -10 167 4
15 13 20 39 20 28 0 36 -5 49 -33z m820 2 c25 -19 17 -19 -25 0 -24 10 -28 14
-14 14 11 0 29 -6 39 -14z m-964 -171 c0 -8 -5 -12 -11 -8 -8 4 -9 -1 -4 -17
4 -14 4 -20 -1 -16 -5 5 -15 -8 -22 -30 l-12 -38 6 39 c7 51 21 86 34 86 5 0
10 -7 10 -16z m-13 -111 c-3 -10 -5 -4 -5 12 0 17 2 24 5 18 2 -7 2 -21 0 -30z
m-20 -45 c-3 -8 -6 -5 -6 6 -1 11 2 17 5 13 3 -3 4 -12 1 -19z m20 -50 c-3 -8
-6 -5 -6 6 -1 11 2 17 5 13 3 -3 4 -12 1 -19z"/>
<path d="M1711 1880 c14 -31 19 -36 19 -24 0 6 -7 19 -16 30 -14 18 -14 18 -3
-6z"/>
<path d="M1980 1788 c0 -12 3 -18 7 -15 3 4 12 2 19 -4 8 -7 14 -7 19 1 9 15
-5 32 -22 26 -8 -3 -11 -1 -8 4 3 6 1 10 -4 10 -6 0 -11 -10 -11 -22z"/>
<path d="M1851 1795 c0 -5 6 -21 14 -35 8 -14 14 -20 14 -15 0 6 -6 21 -14 35
-8 14 -14 21 -14 15z"/>
<path d="M1752 1745 c0 -16 2 -22 5 -12 2 9 2 23 0 30 -3 6 -5 -1 -5 -18z"/>
<path d="M542 1740 c0 -14 2 -19 5 -12 2 6 2 18 0 25 -3 6 -5 1 -5 -13z"/>
<path d="M533 1675 c0 -22 2 -30 4 -17 2 12 2 30 0 40 -3 9 -5 -1 -4 -23z"/>
<path d="M1901 1664 c0 -11 3 -14 6 -6 3 7 2 16 -1 19 -3 4 -6 -2 -5 -13z"/>
<path d="M1942 1625 c0 -16 2 -22 5 -12 2 9 2 23 0 30 -3 6 -5 -1 -5 -18z"/>
<path d="M1910 1488 c0 -86 -4 -168 -10 -182 -7 -19 -6 -26 3 -26 6 -1 -4 -15
-24 -33 -19 -18 -41 -41 -49 -52 -8 -11 9 2 38 30 29 27 52 54 52 59 0 5 8 18
17 28 15 17 15 18 1 13 -15 -6 -16 7 -11 137 4 98 2 151 -5 164 -9 15 -11 -18
-12 -138z"/>
<path d="M524 1520 c0 -63 1 -89 3 -57 2 31 2 83 0 115 -2 31 -3 5 -3 -58z"/>
<path d="M1946 1489 c-4 -58 -6 -114 -4 -125 4 -22 29 -26 36 -5 3 8 0 11 -6
7 -8 -5 -12 29 -14 111 l-3 118 -9 -106z"/>
<path d="M1854 1460 c0 -52 1 -74 3 -47 2 26 2 68 0 95 -2 26 -3 4 -3 -48z"/>
<path d="M1882 1490 c0 -19 2 -27 5 -17 2 9 2 25 0 35 -3 9 -5 1 -5 -18z"/>
<path d="M1531 1474 c0 -11 3 -14 6 -6 3 7 2 16 -1 19 -3 4 -6 -2 -5 -13z"/>
<path d="M1576 1482 c-2 -4 -1 -14 5 -22 7 -12 9 -10 9 8 0 23 -5 28 -14 14z"/>
<path d="M1801 1443 c0 -17 -5 -34 -9 -37 -5 -3 -7 9 -5 27 5 39 -41 -79 -66
-168 -9 -33 -20 -65 -24 -72 -4 -6 -3 -13 2 -15 5 -2 6 -24 1 -51 -4 -26 -3
-50 1 -53 4 -2 9 12 11 32 3 35 6 38 51 51 43 12 46 15 32 29 -8 9 -15 34 -16
57 0 34 -2 38 -10 22 -19 -41 1 63 21 111 12 26 19 59 17 73 -3 22 -4 21 -6
-6z m-54 -245 c-3 -7 -5 -2 -5 12 0 14 2 19 5 13 2 -7 2 -19 0 -25z"/>
<path d="M1521 1434 c0 -11 3 -14 6 -6 3 7 2 16 -1 19 -3 4 -6 -2 -5 -13z"/>
<path d="M1823 1415 c0 -22 2 -30 4 -17 2 12 2 30 0 40 -3 9 -5 -1 -4 -23z"/>
<path d="M1893 1395 c0 -27 2 -38 4 -22 2 15 2 37 0 50 -2 12 -4 0 -4 -28z"/>
<path d="M533 1285 c0 -44 2 -61 4 -37 2 23 2 59 0 80 -2 20 -4 1 -4 -43z"/>
<path d="M1785 1332 c-4 -18 -4 -36 -1 -39 3 -4 6 5 6 18 0 19 2 21 10 9 11
-18 12 -3 1 25 -7 17 -9 16 -16 -13z"/>
<path d="M1843 1325 c0 -22 2 -30 4 -17 2 12 2 30 0 40 -3 9 -5 -1 -4 -23z"/>
<path d="M1148 1113 c7 -3 16 -2 19 1 4 3 -2 6 -13 5 -11 0 -14 -3 -6 -6z"/>
<path d="M693 1020 c0 -30 2 -43 4 -27 2 15 2 39 0 55 -2 15 -4 2 -4 -28z"/>
<path d="M1523 965 c0 -44 2 -61 4 -37 2 23 2 59 0 80 -2 20 -4 1 -4 -43z"/>
<path d="M702 925 c0 -16 2 -22 5 -12 2 9 2 23 0 30 -3 6 -5 -1 -5 -18z"/>
<path d="M503 777 c1 -10 5 -17 8 -15 4 2 17 -6 29 -17 l23 -20 -12 23 c-6 12
-18 22 -26 22 -7 0 -16 6 -19 13 -3 6 -5 4 -3 -6z"/>
<path d="M1476 755 c4 -8 11 -15 16 -15 6 0 5 6 -2 15 -7 8 -14 15 -16 15 -2
0 -1 -7 2 -15z"/>
<path d="M496 715 c4 -8 11 -15 16 -15 6 0 5 6 -2 15 -7 8 -14 15 -16 15 -2 0
-1 -7 2 -15z"/>
<path d="M531 714 c0 -11 3 -14 6 -6 3 7 2 16 -1 19 -3 4 -6 -2 -5 -13z"/>
<path d="M1500 714 c0 -16 9 -18 28 -5 10 6 9 10 -7 14 -14 3 -21 0 -21 -9z"/>
<path d="M1006 701 c-4 -7 -5 -15 -2 -18 9 -9 19 4 14 18 -4 11 -6 11 -12 0z"/>
<path d="M886 633 c-10 -11 -7 -133 4 -133 6 0 10 15 11 33 l1 32 10 -34 c10
-36 23 -32 31 9 4 21 4 20 6 -7 0 -18 6 -33 11 -33 6 0 10 30 10 70 0 70 -14
94 -26 43 -3 -16 -9 -39 -14 -53 -6 -22 -8 -19 -15 23 -7 47 -16 62 -29 50z"/>
<path d="M1010 570 c0 -70 0 -70 28 -69 26 0 26 1 5 9 -26 10 -32 50 -8 50 8
0 15 5 15 10 0 6 -7 10 -15 10 -8 0 -15 9 -15 20 0 13 7 20 20 20 11 0 20 5
20 10 0 6 -11 10 -25 10 -24 0 -25 -2 -25 -70z"/>
<path d="M1104 575 c1 -68 2 -70 26 -70 24 0 25 2 26 70 l1 70 -6 -64 c-10
-103 -35 -92 -44 19 -2 25 -4 14 -3 -25z"/>
<path d="M1211 626 c-7 -8 -11 -37 -9 -68 3 -49 5 -53 28 -53 21 0 26 5 28 33
3 26 0 32 -15 31 -10 0 -13 -3 -5 -6 14 -6 15 -22 2 -43 -9 -13 -11 -13 -20 0
-13 21 -13 87 2 96 6 4 17 -1 25 -11 10 -15 13 -15 13 -4 0 15 -19 39 -31 39
-4 0 -12 -6 -18 -14z"/>
<path d="M1310 583 c-6 -32 -13 -64 -15 -70 -3 -7 0 -13 5 -13 6 0 10 7 10 15
0 8 9 15 20 15 11 0 20 -7 20 -15 0 -8 4 -15 9 -15 7 0 1 53 -14 118 -9 38
-23 24 -35 -35z m30 -18 c0 -14 -4 -25 -10 -25 -5 0 -10 11 -10 25 0 14 5 25
10 25 6 0 10 -11 10 -25z"/>
<path d="M1407 633 c-4 -3 -7 -35 -7 -70 0 -60 1 -63 25 -63 29 0 45 26 45 74
0 47 -39 84 -63 59z m41 -65 c-4 -74 -28 -77 -28 -4 0 44 3 56 16 56 12 0 14
-10 12 -52z"/>
<path d="M1512 628 c-14 -14 -16 -96 -3 -116 5 -8 17 -12 27 -10 16 3 20 14
22 62 2 41 -1 62 -10 67 -17 12 -22 11 -36 -3z m36 -60 c-4 -74 -28 -77 -28
-4 0 44 3 56 16 56 12 0 14 -10 12 -52z"/>
</g>
</svg>
